<svg width="147" height="423" viewBox="0 0 147 423" fill="none" xmlns="http://www.w3.org/2000/svg">
<g clip-path="url(#clip0_52_1167)">
<path d="M7.1851 419.409C7.1851 417.426 5.57666 415.818 3.59255 415.818C1.60844 415.818 -2.4364e-07 417.426 -1.56956e-07 419.409C-7.02715e-08 421.392 1.60844 423 3.59255 423C5.57666 423 7.1851 421.392 7.1851 419.409Z" fill="white"/>
<path d="M7.1851 367.431C7.1851 365.448 5.57666 363.841 3.59255 363.841C1.60844 363.841 -2.4364e-07 365.448 -1.56956e-07 367.431C-7.02715e-08 369.415 1.60844 371.022 3.59255 371.022C5.57666 371.022 7.1851 369.415 7.1851 367.431Z" fill="#FF0B53"/>
<path d="M7.1851 315.455C7.1851 313.472 5.57666 311.864 3.59255 311.864C1.60844 311.864 -2.4364e-07 313.472 -1.56956e-07 315.455C-7.02717e-08 317.438 1.60844 319.046 3.59255 319.046C5.57666 319.046 7.1851 317.438 7.1851 315.455Z" fill="#FF0B53"/>
<path d="M7.1851 263.477C7.1851 261.494 5.57666 259.887 3.59255 259.887C1.60844 259.887 -2.4364e-07 261.494 -1.56956e-07 263.477C-7.02717e-08 265.46 1.60844 267.068 3.59255 267.068C5.57666 267.068 7.1851 265.46 7.1851 263.477Z" fill="white"/>
<path d="M7.1851 211.5C7.1851 209.517 5.57666 207.909 3.59255 207.909C1.60844 207.909 -2.4364e-07 209.517 -1.56956e-07 211.5C-7.02716e-08 213.483 1.60844 215.09 3.59255 215.09C5.57666 215.09 7.1851 213.483 7.1851 211.5Z" fill="#FF0B53"/>
<path d="M7.1851 159.523C7.1851 157.54 5.57666 155.932 3.59255 155.932C1.60844 155.932 -2.43638e-07 157.54 -1.56954e-07 159.523C-7.02702e-08 161.506 1.60844 163.114 3.59255 163.114C5.57666 163.114 7.1851 161.506 7.1851 159.523Z" fill="#FF0B53"/>
<path d="M3.59255 103.955C5.5655 103.955 7.1851 105.573 7.1851 107.545C7.1851 109.517 5.56551 111.136 3.59255 111.136C1.61959 111.136 -7.07588e-08 109.517 -1.56956e-07 107.545C-2.44439e-07 105.544 1.61959 103.955 3.59255 103.955Z" fill="#FF0B53"/>
<path d="M7.1851 55.5677C7.1851 53.5846 5.57666 51.977 3.59255 51.977C1.60844 51.977 -2.4364e-07 53.5846 -1.56955e-07 55.5677C-7.02708e-08 57.5508 1.60844 59.1584 3.59255 59.1584C5.57666 59.1584 7.1851 57.5508 7.1851 55.5677Z" fill="#FF0B53"/>
<path d="M7.1851 3.59103C7.1851 1.60793 5.57666 0.000304932 3.59255 0.000305019C1.60844 0.000305105 -2.4364e-07 1.60793 -1.56956e-07 3.59103C-7.02716e-08 5.57414 1.60844 7.18176 3.59255 7.18176C5.57666 7.18176 7.1851 5.57414 7.1851 3.59103Z" fill="#FF0B53"/>
<path d="M42.1392 419.409C42.1392 417.426 40.5308 415.818 38.5467 415.818C36.5625 415.818 34.9541 417.426 34.9541 419.409C34.9541 421.392 36.5625 423 38.5467 423C40.5308 423 42.1392 421.392 42.1392 419.409Z" fill="#FF0B53"/>
<path d="M42.1392 367.431C42.1392 365.448 40.5308 363.841 38.5467 363.841C36.5625 363.841 34.9541 365.448 34.9541 367.431C34.9541 369.415 36.5625 371.022 38.5467 371.022C40.5308 371.022 42.1392 369.415 42.1392 367.431Z" fill="#FF0B53"/>
<path d="M42.1392 315.455C42.1392 313.472 40.5308 311.864 38.5467 311.864C36.5625 311.864 34.9541 313.472 34.9541 315.455C34.9541 317.438 36.5625 319.046 38.5467 319.046C40.5308 319.046 42.1392 317.438 42.1392 315.455Z" fill="#FF0B53"/>
<path d="M42.1392 263.477C42.1392 261.494 40.5308 259.887 38.5467 259.887C36.5625 259.887 34.9541 261.494 34.9541 263.477C34.9541 265.46 36.5625 267.068 38.5467 267.068C40.5308 267.068 42.1392 265.46 42.1392 263.477Z" fill="#FF0B53"/>
<path d="M42.1392 211.5C42.1392 209.517 40.5308 207.909 38.5467 207.909C36.5625 207.909 34.9541 209.517 34.9541 211.5C34.9541 213.483 36.5625 215.09 38.5467 215.09C40.5308 215.09 42.1392 213.483 42.1392 211.5Z" fill="#FF0B53"/>
<path d="M42.1392 159.523C42.1392 157.54 40.5308 155.932 38.5467 155.932C36.5625 155.932 34.9541 157.54 34.9541 159.523C34.9541 161.506 36.5625 163.114 38.5467 163.114C40.5308 163.114 42.1392 161.506 42.1392 159.523Z" fill="white"/>
<path d="M38.5467 103.955C40.5196 103.955 42.1392 105.573 42.1392 107.545C42.1392 109.517 40.5196 111.136 38.5467 111.136C36.5737 111.136 34.9541 109.517 34.9541 107.545C34.9541 105.544 36.5737 103.955 38.5467 103.955Z" fill="#FF0B53"/>
<path d="M42.1392 55.5677C42.1392 53.5846 40.5308 51.977 38.5467 51.977C36.5625 51.977 34.9541 53.5846 34.9541 55.5677C34.9541 57.5508 36.5625 59.1584 38.5467 59.1584C40.5308 59.1584 42.1392 57.5508 42.1392 55.5677Z" fill="#FF0B53"/>
<path d="M42.1392 3.59103C42.1392 1.60793 40.5308 0.000304932 38.5467 0.000305019C36.5625 0.000305105 34.9541 1.60793 34.9541 3.59103C34.9541 5.57414 36.5625 7.18176 38.5467 7.18176C40.5308 7.18176 42.1392 5.57414 42.1392 3.59103Z" fill="white"/>
<path d="M77.0923 419.409C77.0923 417.426 75.4839 415.818 73.4998 415.818C71.5157 415.818 69.9072 417.426 69.9072 419.409C69.9072 421.392 71.5157 423 73.4998 423C75.4839 423 77.0923 421.392 77.0923 419.409Z" fill="#FF0B53"/>
<path d="M77.0923 367.431C77.0923 365.448 75.4839 363.841 73.4998 363.841C71.5157 363.841 69.9072 365.448 69.9072 367.431C69.9072 369.415 71.5157 371.022 73.4998 371.022C75.4839 371.022 77.0923 369.415 77.0923 367.431Z" fill="white"/>
<path d="M77.0923 315.455C77.0923 313.472 75.4839 311.864 73.4998 311.864C71.5157 311.864 69.9072 313.472 69.9072 315.455C69.9072 317.438 71.5157 319.046 73.4998 319.046C75.4839 319.046 77.0923 317.438 77.0923 315.455Z" fill="#FF0B53"/>
<path d="M77.0923 263.477C77.0923 261.494 75.4839 259.887 73.4998 259.887C71.5157 259.887 69.9072 261.494 69.9072 263.477C69.9072 265.46 71.5157 267.068 73.4998 267.068C75.4839 267.068 77.0923 265.46 77.0923 263.477Z" fill="#FF0B53"/>
<path d="M77.0923 211.5C77.0923 209.517 75.4839 207.909 73.4998 207.909C71.5157 207.909 69.9072 209.517 69.9072 211.5C69.9072 213.483 71.5157 215.09 73.4998 215.09C75.4839 215.09 77.0923 213.483 77.0923 211.5Z" fill="#FF0B53"/>
<path d="M77.0923 159.523C77.0923 157.54 75.4839 155.932 73.4998 155.932C71.5157 155.932 69.9072 157.54 69.9072 159.523C69.9072 161.506 71.5157 163.114 73.4998 163.114C75.4839 163.114 77.0923 161.506 77.0923 159.523Z" fill="#FF0B53"/>
<path d="M73.4998 103.955C75.4727 103.955 77.0923 105.573 77.0923 107.545C77.0923 109.517 75.4727 111.136 73.4998 111.136C71.5268 111.136 69.9072 109.517 69.9072 107.545C69.9072 105.544 71.5268 103.955 73.4998 103.955Z" fill="white"/>
<path d="M77.0923 55.5677C77.0923 53.5846 75.4839 51.977 73.4998 51.977C71.5157 51.977 69.9072 53.5846 69.9072 55.5677C69.9072 57.5508 71.5157 59.1584 73.4998 59.1584C75.4839 59.1584 77.0923 57.5508 77.0923 55.5677Z" fill="#FF0B53"/>
<path d="M77.0923 3.59103C77.0923 1.60793 75.4839 0.000304932 73.4998 0.000305019C71.5157 0.000305105 69.9072 1.60793 69.9072 3.59103C69.9072 5.57414 71.5157 7.18176 73.4998 7.18176C75.4839 7.18176 77.0923 5.57414 77.0923 3.59103Z" fill="#FF0B53"/>
<path d="M112.046 419.409C112.046 417.426 110.438 415.818 108.454 415.818C106.47 415.818 104.861 417.426 104.861 419.409C104.861 421.392 106.47 423 108.454 423C110.438 423 112.046 421.392 112.046 419.409Z" fill="#FF0B53"/>
<path d="M112.046 367.431C112.046 365.448 110.438 363.841 108.454 363.841C106.47 363.841 104.861 365.448 104.861 367.431C104.861 369.415 106.47 371.022 108.454 371.022C110.438 371.022 112.046 369.415 112.046 367.431Z" fill="#FF0B53"/>
<path d="M112.046 315.455C112.046 313.472 110.438 311.864 108.454 311.864C106.47 311.864 104.861 313.472 104.861 315.455C104.861 317.438 106.47 319.046 108.454 319.046C110.438 319.046 112.046 317.438 112.046 315.455Z" fill="white"/>
<path d="M112.046 263.477C112.046 261.494 110.438 259.887 108.454 259.887C106.47 259.887 104.861 261.494 104.861 263.477C104.861 265.46 106.47 267.068 108.454 267.068C110.438 267.068 112.046 265.46 112.046 263.477Z" fill="#FF0B53"/>
<path d="M112.046 211.5C112.046 209.517 110.438 207.909 108.454 207.909C106.47 207.909 104.861 209.517 104.861 211.5C104.861 213.483 106.47 215.09 108.454 215.09C110.438 215.09 112.046 213.483 112.046 211.5Z" fill="white"/>
<path d="M112.046 159.523C112.046 157.54 110.438 155.932 108.454 155.932C106.47 155.932 104.861 157.54 104.861 159.523C104.861 161.506 106.47 163.114 108.454 163.114C110.438 163.114 112.046 161.506 112.046 159.523Z" fill="#FF0B53"/>
<path d="M108.454 103.955C110.427 103.955 112.046 105.573 112.046 107.545C112.046 109.517 110.427 111.136 108.454 111.136C106.481 111.136 104.861 109.517 104.861 107.545C104.861 105.544 106.481 103.955 108.454 103.955Z" fill="#FF0B53"/>
<path d="M112.046 55.5677C112.046 53.5846 110.438 51.977 108.454 51.977C106.47 51.977 104.861 53.5846 104.861 55.5677C104.861 57.5508 106.47 59.1584 108.454 59.1584C110.438 59.1584 112.046 57.5508 112.046 55.5677Z" fill="#FF0B53"/>
<path d="M112.046 3.59103C112.046 1.60793 110.438 0.000304932 108.454 0.000305019C106.47 0.000305105 104.861 1.60793 104.861 3.59103C104.861 5.57414 106.47 7.18176 108.454 7.18176C110.438 7.18176 112.046 5.57414 112.046 3.59103Z" fill="#FF0B53"/>
<path d="M147 419.409C147 417.426 145.391 415.818 143.407 415.818C141.423 415.818 139.814 417.426 139.814 419.409C139.814 421.392 141.423 423 143.407 423C145.391 423 147 421.392 147 419.409Z" fill="#FF0B53"/>
<path d="M147 367.431C147 365.448 145.391 363.841 143.407 363.841C141.423 363.841 139.814 365.448 139.814 367.431C139.814 369.415 141.423 371.022 143.407 371.022C145.391 371.022 147 369.415 147 367.431Z" fill="#FF0B53"/>
<path d="M147 315.455C147 313.472 145.391 311.864 143.407 311.864C141.423 311.864 139.814 313.472 139.814 315.455C139.814 317.438 141.423 319.046 143.407 319.046C145.391 319.046 147 317.438 147 315.455Z" fill="#FF0B53"/>
<path d="M147 263.477C147 261.494 145.391 259.887 143.407 259.887C141.423 259.887 139.814 261.494 139.814 263.477C139.814 265.46 141.423 267.068 143.407 267.068C145.391 267.068 147 265.46 147 263.477Z" fill="#FF0B53"/>
<path d="M147 211.5C147 209.517 145.391 207.909 143.407 207.909C141.423 207.909 139.814 209.517 139.814 211.5C139.814 213.483 141.423 215.09 143.407 215.09C145.391 215.09 147 213.483 147 211.5Z" fill="#FF0B53"/>
<path d="M147 159.523C147 157.54 145.391 155.932 143.407 155.932C141.423 155.932 139.814 157.54 139.814 159.523C139.814 161.506 141.423 163.114 143.407 163.114C145.391 163.114 147 161.506 147 159.523Z" fill="#FF0B53"/>
<path d="M143.407 103.955C145.38 103.955 147 105.573 147 107.545C147 109.517 145.38 111.136 143.407 111.136C141.434 111.136 139.814 109.517 139.814 107.545C139.814 105.544 141.434 103.955 143.407 103.955Z" fill="#FF0B53"/>
<path d="M147 55.5677C147 53.5846 145.391 51.977 143.407 51.977C141.423 51.977 139.814 53.5846 139.814 55.5677C139.814 57.5508 141.423 59.1584 143.407 59.1584C145.391 59.1584 147 57.5508 147 55.5677Z" fill="white"/>
<path d="M147 3.59103C147 1.60793 145.391 0.000304932 143.407 0.000305019C141.423 0.000305105 139.814 1.60793 139.814 3.59103C139.814 5.57414 141.423 7.18176 143.407 7.18176C145.391 7.18176 147 5.57414 147 3.59103Z" fill="white"/>
</g>
<defs>
<clipPath id="clip0_52_1167">
<rect width="423" height="147" fill="white" transform="translate(0 423) rotate(-90)"/>
</clipPath>
</defs>
</svg>
